<svg xmlns="http://www.w3.org/2000/svg" width="948" height="948" fill="none" viewBox="0 0 948 948"><path fill="#000" fill-rule="evenodd" d="M474 916C718.11 916 916 718.11 916 474C916 229.89 718.11 32 474 32C229.89 32 32 229.89 32 474C32 718.11 229.89 916 474 916ZM474 948C735.783 948 948 735.783 948 474C948 212.217 735.783 0 474 0C212.217 0 0 212.217 0 474C0 735.783 212.217 948 474 948Z" clip-rule="evenodd"/><path fill="#000" stroke="#000" d="M432.999 344V96.5C18.4975 141.5 -46.5006 782.5 432.999 848V605H363.499V742C289.999 742 182 633.5 182 515H363.499V433.5H182C182 344 281.999 207 363.499 207V344H432.999Z"/><path fill="#000" stroke="#000" d="M604.5 213V826.5C632.5 814.5 661 800 680.001 786.5V270.5C708.5 292.5 727 321.5 741.501 350L826 340.5C795 231 639.5 94.5 508.5 94.5C508.5 135 508.5 131.5 508.5 176.5C558.9 181.7 593.5 203 604.5 213Z"/></svg>