<svg xmlns="http://www.w3.org/2000/svg" viewBox="0 0 32 32"><ellipse style="fill:#fff" cx="16.021" cy="15.997" rx="15.987" ry="15.966" transform="matrix(1, -0.000549, 0, 1, 0.000007, 0.00879)"/><path d="M13.83 19.259L19.262 16l-5.432-3.259z"/><path d="M 16.047 0.174 C 7.287 0.174 0.186 7.256 0.186 15.994 C 0.186 24.732 7.287 31.814 16.047 31.814 C 24.806 31.814 31.907 24.731 31.907 15.994 C 31.907 7.257 24.806 0.174 16.047 0.174 Z M 24.658 16.687 C 24.658 18.17 24.486 19.654 24.486 19.654 C 24.486 19.654 24.317 20.917 23.802 21.472 C 23.147 22.202 22.414 22.206 22.077 22.249 C 19.666 22.433 16.047 22.439 16.047 22.439 C 16.047 22.439 11.568 22.396 10.19 22.255 C 9.806 22.179 8.946 22.201 8.29 21.472 C 7.774 20.916 7.606 19.654 7.606 19.654 C 7.606 19.654 7.434 18.171 7.434 16.687 L 7.434 15.297 C 7.434 13.814 7.606 12.332 7.606 12.332 C 7.606 12.332 7.775 11.068 8.29 10.511 C 8.945 9.781 9.679 9.777 10.016 9.736 C 12.426 9.55 16.043 9.55 16.043 9.55 L 16.051 9.55 C 16.051 9.55 19.667 9.55 22.077 9.736 C 22.413 9.777 23.147 9.781 23.802 10.51 C 24.318 11.067 24.486 12.331 24.486 12.331 C 24.486 12.331 24.658 13.814 24.658 15.297 L 24.658 16.687 Z"/></svg>