<svg width="32" height="32" viewBox="0 0 32 32" fill="none" xmlns="http://www.w3.org/2000/svg">
<circle cx="16" cy="16" r="16" fill="black"/>
<path d="M16 32C17.5841 32 15.0234 32 16 32C14 32 11 31.5 10.5 31C10.5 30.421 12.0296 30.2425 12.0296 29.8145C12.0296 29.4345 12.0206 28.4295 12.0146 27.0955C7.56158 28.0595 6.62358 24.9445 6.62358 24.9445C5.89458 23.1005 4.84258 22.6055 4.84258 22.6055C3.39458 21.6165 4.95758 21.6375 4.95758 21.6375C6.56158 21.7465 7.40558 23.2825 7.40558 23.2825C8.83258 25.7305 11.1496 25.0225 12.0666 24.6105C12.2066 23.5795 12.6236 22.8705 13.0776 22.4755C9.52558 22.0745 5.79058 20.6995 5.79058 14.5685C5.79058 12.8175 6.41058 11.3915 7.43558 10.2715C7.25858 9.87047 6.71658 8.24047 7.57658 6.03647C7.57658 6.03647 8.91558 5.60947 11.9766 7.67747C13.2576 7.32247 14.6176 7.14547 15.9766 7.13647C17.3366 7.14547 18.6956 7.32347 19.9766 7.67747C23.0196 5.60947 24.3576 6.03647 24.3576 6.03647C25.2166 8.24047 24.6746 9.86947 24.5186 10.2715C25.5336 11.3915 26.1536 12.8185 26.1536 14.5685C26.1536 20.7135 22.4136 22.0685 18.8576 22.4595C19.4136 22.9385 19.9346 23.9235 19.9346 25.4185C19.9346 27.5585 19.9146 29.2825 19.9146 29.8035C19.9146 30.2195 21.4814 30.449 21.5 31C21 31.5 18.0958 32 16 32C17.0234 32 13.5 32 16 32Z" fill="white"/>
</svg>
