<?xml version="1.0" standalone="no"?>
<!DOCTYPE svg PUBLIC "-//W3C//DTD SVG 20010904//EN"
 "http://www.w3.org/TR/2001/REC-SVG-20010904/DTD/svg10.dtd">
<svg version="1.0" xmlns="http://www.w3.org/2000/svg"
 width="460.000000pt" height="460.000000pt" viewBox="0 0 460.000000 460.000000"
 preserveAspectRatio="xMidYMid meet">
<metadata>
Created by potrace 1.14, written by Peter Selinger 2001-2017
</metadata>
<g transform="translate(0.000000,460.000000) scale(0.100000,-0.100000)"
fill="#000000" stroke="none">
<path d="M2247 4474 c-1 -1 -45 -4 -97 -8 -52 -3 -119 -10 -149 -16 -30 -5
-56 -8 -59 -5 -3 2 -12 0 -21 -4 -9 -5 -40 -12 -69 -15 -71 -7 -268 -65 -297
-87 -6 -4 -33 -13 -60 -20 -28 -7 -63 -20 -79 -30 -16 -10 -33 -16 -38 -13 -4
3 -8 1 -8 -4 0 -5 -35 -27 -77 -48 -87 -43 -183 -100 -198 -117 -5 -7 -26 -20
-46 -30 -19 -10 -57 -38 -83 -63 -26 -24 -51 -44 -56 -44 -6 0 -117 -100 -152
-137 -4 -5 -35 -36 -68 -71 -33 -34 -60 -66 -60 -70 0 -4 -18 -27 -41 -52 -22
-25 -52 -65 -67 -90 -15 -25 -33 -53 -42 -63 -19 -22 -51 -75 -88 -147 -16
-30 -38 -72 -50 -93 -12 -21 -22 -44 -22 -51 0 -7 -6 -19 -14 -25 -8 -7 -17
-28 -21 -49 -4 -20 -15 -55 -25 -77 -10 -23 -22 -54 -26 -70 -4 -17 -10 -34
-14 -40 -11 -15 -38 -124 -46 -180 -3 -27 -8 -59 -10 -70 -3 -11 -7 -36 -10
-55 -2 -19 -6 -42 -9 -50 -15 -54 -23 -382 -11 -458 3 -15 7 -56 11 -92 4 -36
10 -81 15 -100 5 -19 12 -57 15 -85 3 -27 8 -58 11 -67 3 -9 6 -25 8 -35 2
-10 18 -56 34 -103 17 -47 38 -107 48 -135 30 -86 168 -357 185 -363 5 -2 9
-9 9 -17 0 -7 7 -18 16 -26 8 -7 24 -30 35 -51 10 -20 35 -53 54 -72 19 -20
35 -38 35 -41 0 -8 16 -27 65 -79 22 -24 54 -58 71 -77 45 -49 135 -131 164
-150 14 -9 39 -29 55 -46 17 -17 50 -42 75 -57 25 -15 63 -40 85 -56 22 -16
74 -46 115 -67 41 -21 77 -41 80 -45 14 -18 179 -84 370 -148 52 -17 121 -33
200 -44 19 -3 44 -7 55 -10 19 -4 54 -8 160 -22 98 -12 447 -5 473 9 4 3 31 8
61 11 29 4 56 8 60 10 3 2 33 7 66 11 33 3 105 22 160 41 55 18 127 43 160 54
64 22 308 140 313 153 2 4 9 7 15 7 7 0 39 20 72 45 33 25 64 45 70 45 6 0 29
16 51 36 21 20 55 48 74 63 81 60 254 233 300 301 13 19 35 45 49 57 13 12 36
41 50 66 14 24 43 69 64 100 53 80 159 289 186 367 82 240 94 290 126 507 20
140 25 368 10 483 -3 25 -7 61 -9 82 -2 20 -9 60 -15 90 -6 29 -13 71 -16 93
-3 23 -7 50 -9 61 -5 27 -49 157 -76 224 -12 30 -24 65 -26 78 -3 12 -13 38
-24 57 -11 20 -20 42 -20 49 0 7 -7 19 -15 26 -9 7 -28 40 -44 74 -15 34 -46
87 -67 120 -21 32 -52 80 -69 106 -16 26 -42 59 -57 72 -16 14 -28 28 -28 32
0 9 -15 27 -65 80 -22 24 -54 58 -71 77 -43 48 -117 115 -172 157 -26 19 -58
46 -72 59 -13 14 -36 31 -50 38 -14 7 -62 38 -107 69 -46 31 -83 54 -83 51 0
-2 -24 9 -52 25 -84 46 -175 90 -186 90 -5 0 -41 13 -81 29 -39 17 -71 28 -71
25 0 -2 -12 2 -27 9 -40 20 -136 45 -223 58 -41 6 -84 13 -95 14 -102 18 -376
38 -388 29z m-43 -142 c3 -5 -14 -9 -37 -9 l-42 -1 35 8 c19 4 36 8 37 9 1 0
4 -3 7 -7z m209 -2 c3 -3 -39 -5 -93 -5 -54 0 -97 2 -95 5 4 7 182 7 188 0z
m65 -7 c-10 -2 -26 -2 -35 0 -10 3 -2 5 17 5 19 0 27 -2 18 -5z m-529 -17 c-3
-3 -20 -8 -38 -11 -19 -3 -38 -8 -43 -11 -4 -3 -8 -3 -8 1 0 3 9 9 20 13 24 9
76 14 69 8z m771 -6 c20 -6 21 -8 5 -8 -11 0 -31 4 -45 8 -20 6 -21 8 -5 8 11
0 31 -4 45 -8z m130 -35 c46 -14 88 -29 93 -34 6 -6 -32 4 -84 20 -114 36
-117 37 -103 38 6 1 48 -10 94 -24z m-1041 11 c-8 -8 -222 -76 -226 -73 -2 3
45 21 104 40 101 34 132 43 122 33z m1201 -66 c11 -8 7 -9 -15 -4 -37 8 -45
14 -19 14 10 0 26 -5 34 -10z m-1460 -15 c0 -2 -21 -14 -47 -26 -27 -12 -60
-28 -75 -35 -16 -8 -28 -12 -28 -9 0 3 33 21 73 40 79 38 77 37 77 30z m1665
-72 c33 -18 55 -33 48 -33 -7 0 -34 13 -60 28 -26 16 -70 37 -96 47 -26 10
-50 22 -53 26 -7 11 88 -29 161 -68z m-1830 -11 c-14 -12 -65 -32 -65 -26 0 3
15 11 33 19 37 17 45 18 32 7z m2010 -92 c11 -10 31 -23 43 -30 13 -6 21 -14
18 -17 -3 -4 -23 7 -44 24 -20 16 -58 42 -84 57 -27 15 -48 30 -48 33 0 7 91
-46 115 -67z m-2115 39 c-19 -12 -56 -37 -82 -56 -27 -19 -48 -31 -48 -26 1
10 141 103 155 103 5 0 -6 -10 -25 -21z m1240 -19 c21 -7 19 -8 -14 -7 -34 2
-41 -1 -47 -23 -4 -14 -7 -18 -8 -8 -3 45 16 55 69 38z m-482 -5 c-3 -3 -27
-8 -54 -10 -35 -3 -40 -2 -19 3 40 10 80 13 73 7z m76 -3 c2 -4 -11 -6 -30 -4
-19 2 -34 6 -34 8 0 8 59 4 64 -4z m-184 -6 c0 -3 -4 -8 -10 -11 -5 -3 -10 -1
-10 4 0 6 5 11 10 11 6 0 10 -2 10 -4z m694 -16 c7 -7 1 -7 -19 -1 -54 17 -61
21 -25 16 19 -3 39 -10 44 -15z m-729 1 c-6 -5 -23 -11 -40 -14 -16 -2 -47
-12 -67 -20 -21 -9 -38 -14 -38 -11 0 8 72 36 105 41 17 3 32 7 34 9 2 2 7 4
10 4 3 0 1 -4 -4 -9z m863 -37 c-6 -6 -88 18 -88 26 0 4 20 1 45 -8 25 -8 44
-16 43 -18z m-301 -16 c-3 -8 -6 -5 -6 6 -1 11 2 17 5 13 3 -3 4 -12 1 -19z
m1068 -25 c11 -10 42 -36 70 -58 60 -48 96 -81 75 -70 -14 8 -172 136 -195
158 -18 17 30 -11 50 -30z m-1920 -23 c-55 -27 -100 -48 -102 -46 -5 5 170 95
186 95 8 1 -30 -21 -84 -49z m1272 39 c68 -28 182 -83 179 -86 -2 -2 -37 12
-77 31 -41 19 -92 41 -114 49 -22 9 -35 16 -28 16 7 1 25 -4 40 -10z m-1778
-13 c-2 -2 -28 -22 -57 -44 -30 -22 -94 -78 -144 -123 -49 -46 -91 -84 -92
-84 -2 0 36 38 83 83 78 76 195 172 209 172 3 0 3 -2 1 -4z m1360 -86 c-2 -50
-6 -96 -10 -102 -4 -7 -6 3 -4 22 2 19 4 65 4 103 1 37 4 67 7 67 3 0 4 -41 3
-90z m-1044 -40 c-44 -28 -90 -57 -102 -66 -13 -9 -23 -14 -23 -11 0 9 181
127 194 127 6 0 -26 -23 -69 -50z m1741 12 c21 -16 59 -40 84 -55 25 -15 40
-27 35 -27 -6 0 -48 25 -94 55 -46 30 -80 55 -74 55 5 0 28 -13 49 -28z m558
-47 c11 -8 18 -17 15 -19 -2 -2 -15 4 -28 15 -27 22 -15 26 13 4z m61 -65 c16
-16 26 -30 23 -30 -3 0 -19 14 -36 30 -18 17 -28 30 -24 30 5 0 21 -13 37 -30z
m-2515 2 c-14 -9 -41 -30 -61 -47 -20 -16 -13 -9 14 18 28 26 56 47 61 46 6 0
0 -8 -14 -17z m1187 -44 c-2 -13 -4 -3 -4 22 0 25 2 35 4 23 2 -13 2 -33 0
-45z m896 30 c49 -39 79 -68 71 -68 -4 0 -23 15 -43 33 -20 17 -47 40 -61 49
-14 9 -21 17 -16 17 4 1 27 -14 49 -31z m-2543 -31 c0 -2 -12 -14 -27 -28
l-26 -24 19 27 c16 23 34 36 34 25z m3085 -83 c60 -76 98 -128 79 -109 -33 32
-162 193 -151 189 6 -3 39 -39 72 -80z m-1390 67 c-9 -8 -36 -10 -30 -2 2 4
11 8 20 8 8 0 13 -3 10 -6z m55 -10 c0 -5 -9 -7 -20 -4 -11 3 -20 7 -20 9 0 2
9 4 20 4 11 0 20 -4 20 -9z m-1433 -44 c-18 -18 -34 -31 -36 -30 -6 4 51 63
60 63 4 0 -7 -15 -24 -33z m1020 1 c-3 -7 -5 -2 -5 12 0 14 2 19 5 13 2 -7 2
-19 0 -25z m589 -4 c76 -33 144 -76 144 -91 0 -6 -13 1 -30 17 -16 15 -66 43
-112 63 -46 20 -78 37 -72 37 6 0 38 -12 70 -26z m768 -26 c25 -29 43 -54 40
-57 -3 -3 -10 3 -16 14 -6 11 -29 37 -51 58 -22 20 -35 37 -29 37 6 0 31 -23
56 -52z m-2790 -15 c-48 -59 -64 -76 -64 -68 0 4 20 30 45 58 25 29 45 56 45
61 0 5 3 6 6 3 4 -4 -11 -28 -32 -54z m1433 -5 c-3 -7 -5 -2 -5 12 0 14 2 19
5 13 2 -7 2 -19 0 -25z m-1092 -22 c-38 -36 -45 -33 -10 4 16 16 30 28 33 25
2 -2 -8 -15 -23 -29z m1092 -18 c-3 -8 -6 -5 -6 6 -1 11 2 17 5 13 3 -3 4 -12
1 -19z m-374 -5 c-7 -2 -19 -2 -25 0 -7 3 -2 5 12 5 14 0 19 -2 13 -5z m1828
-35 c19 -24 26 -37 16 -29 -20 16 -61 71 -54 71 3 0 20 -19 38 -42z m-2601 12
c-6 -11 -13 -20 -16 -20 -2 0 0 9 6 20 6 11 13 20 16 20 2 0 0 -9 -6 -20z
m680 10 c-8 -5 -19 -10 -25 -10 -5 0 -3 5 5 10 8 5 20 10 25 10 6 0 3 -5 -5
-10z m-46 -17 c-7 -2 -42 -22 -79 -44 -37 -23 -68 -39 -70 -37 -2 2 31 24 73
49 42 26 79 44 82 41 3 -2 0 -7 -6 -9z m146 7 c0 -5 -5 -10 -11 -10 -5 0 -7 5
-4 10 3 6 8 10 11 10 2 0 4 -4 4 -10z m1097 -37 c-3 -10 -5 -4 -5 12 0 17 2
24 5 18 2 -7 2 -21 0 -30z m-2234 15 c-33 -55 -113 -169 -113 -163 0 9 111
175 117 175 2 0 1 -6 -4 -12z m1137 -13 c0 -8 -4 -15 -10 -15 -5 0 -7 7 -4 15
4 8 8 15 10 15 2 0 4 -7 4 -15z m2214 -1 c3 -8 2 -12 -4 -9 -6 3 -10 10 -10
16 0 14 7 11 14 -7z m-3030 -16 c-10 -12 -35 -38 -54 -58 -43 -43 -18 -9 30
42 38 41 55 52 24 16z m1183 -30 c-3 -7 -5 -2 -5 12 0 14 2 19 5 13 2 -7 2
-19 0 -25z m-370 -15 c-3 -10 -5 -4 -5 12 0 17 2 24 5 18 2 -7 2 -21 0 -30z
m1100 0 c-3 -10 -5 -4 -5 12 0 17 2 24 5 18 2 -7 2 -21 0 -30z m826 -44 c33
-50 39 -59 33 -59 -2 0 -19 23 -37 50 -18 28 -36 50 -40 50 -5 0 -14 10 -20
23 -11 20 -9 20 15 -4 14 -15 36 -42 49 -60z m343 34 c37 -57 56 -93 50 -93
-2 0 -16 21 -31 48 -15 26 -37 57 -48 70 -11 12 -16 22 -11 22 5 0 23 -21 40
-47z m-2592 -5 c-25 -29 -58 -57 -62 -53 -4 3 70 74 77 75 2 0 -4 -10 -15 -22z
m326 -18 c0 -5 -2 -10 -4 -10 -3 0 -8 5 -11 10 -3 6 -1 10 4 10 6 0 11 -4 11
-10z m367 -32 c-3 -7 -5 -2 -5 12 0 14 2 19 5 13 2 -7 2 -19 0 -25z m730 -15
c-3 -10 -5 -4 -5 12 0 17 2 24 5 18 2 -7 2 -21 0 -30z m-1997 18 c0 -6 -11
-23 -25 -38 l-26 -28 23 37 c25 40 28 43 28 29z m900 -28 c0 -24 -3 -33 -9
-25 -7 12 -4 62 5 62 2 0 4 -17 4 -37z m-480 -69 c-77 -75 -93 -90 -87 -79 6
12 161 164 164 161 2 -2 -33 -39 -77 -82z m847 61 c0 -8 -4 -12 -9 -9 -5 3 -6
10 -3 15 9 13 12 11 12 -6z m-1634 -40 c-9 -19 -18 -33 -21 -31 -4 5 26 66 33
66 3 0 -3 -16 -12 -35z m2364 -2 c-3 -10 -5 -4 -5 12 0 17 2 24 5 18 2 -7 2
-21 0 -30z m901 -23 c17 -27 28 -50 24 -50 -4 0 -20 23 -35 50 -36 65 -29 65
11 0z m399 -97 c-5 -4 -77 131 -77 144 0 4 18 -25 41 -66 22 -40 38 -75 36
-78z m-2035 105 c-8 -8 -9 -4 -5 13 4 13 8 18 11 10 2 -7 -1 -18 -6 -23z
m-1343 -37 c-18 -28 -35 -48 -38 -46 -2 3 3 13 11 22 9 10 23 33 33 51 9 19
19 32 22 29 2 -3 -10 -28 -28 -56z m981 33 c0 -14 -4 -23 -9 -20 -5 3 -7 15
-4 26 7 28 13 25 13 -6z m1536 -26 c24 -17 44 -33 44 -35 0 -6 -19 6 -55 32
-16 12 -37 24 -45 28 -11 4 -11 6 -2 6 8 1 34 -13 58 -31z m-439 -15 c-3 -10
-5 -4 -5 12 0 17 2 24 5 18 2 -7 2 -21 0 -30z m385 -75 c2 -43 0 -78 -3 -78
-4 0 -7 42 -7 93 0 106 6 98 10 -15z m-2807 21 c-19 -35 -35 -60 -35 -55 0 11
62 127 66 123 2 -2 -12 -32 -31 -68z m1323 27 c-1 -19 -5 -33 -8 -31 -4 2 -6
14 -4 27 1 13 3 26 3 31 1 4 3 7 6 7 3 0 5 -15 3 -34z m1099 -33 c-3 -10 -5
-4 -5 12 0 17 2 24 5 18 2 -7 2 -21 0 -30z m545 -24 c60 -86 88 -132 88 -148
0 -8 -12 9 -27 37 -16 28 -47 78 -71 112 -23 33 -40 60 -38 60 3 0 25 -27 48
-61z m423 11 c14 -27 23 -50 20 -50 -2 0 -16 23 -30 50 -14 28 -23 50 -20 50
2 0 16 -22 30 -50z m-2684 -50 c-28 -33 -51 -58 -51 -54 0 3 12 20 26 38 14
17 35 43 47 57 12 15 24 25 25 24 2 -2 -19 -31 -47 -65z m619 40 c0 -5 -2 -10
-4 -10 -3 0 -8 5 -11 10 -3 6 -1 10 4 10 6 0 11 -4 11 -10z m2419 -30 c0 -10
-3 -8 -9 5 -12 27 -12 43 0 25 5 -8 9 -22 9 -30z m-3478 -32 c-17 -29 -31 -49
-31 -44 0 11 54 106 58 101 2 -2 -10 -27 -27 -57z m2156 25 c-3 -10 -5 -4 -5
12 0 17 2 24 5 18 2 -7 2 -21 0 -30z m1003 -33 c6 -11 8 -20 6 -20 -3 0 -10 9
-16 20 -6 11 -8 20 -6 20 3 0 10 -9 16 -20z m-2104 -53 c1 -66 10 -95 32 -100
13 -4 11 -5 -5 -6 -16 -1 -23 7 -29 32 -9 38 -12 139 -5 131 3 -3 6 -29 7 -57z
m-1393 -46 c-15 -45 -31 -81 -34 -81 -4 0 8 38 25 84 17 47 33 83 34 81 2 -2
-9 -40 -25 -84z m2494 52 c-3 -10 -5 -4 -5 12 0 17 2 24 5 18 2 -7 2 -21 0
-30z m1362 -22 c11 -30 19 -57 17 -59 -4 -3 -46 102 -46 115 0 14 9 -4 29 -56z
m-312 -46 c-6 -15 -47 -27 -47 -14 0 5 9 9 20 9 23 0 25 15 5 50 -8 14 -14 30
-14 35 0 6 9 -7 20 -28 11 -22 18 -45 16 -52z m-662 -99 c-1 -91 -3 -168 -6
-170 -3 -3 -5 73 -5 168 1 96 3 173 6 171 3 -2 5 -78 5 -169z m-2581 142 c-3
-12 -14 -29 -22 -37 -16 -16 -15 -14 7 32 17 33 25 35 15 5z m391 -39 c-13
-24 -25 -40 -25 -35 0 11 43 87 47 82 2 -2 -8 -23 -22 -47z m1802 4 c-3 -10
-5 -4 -5 12 0 17 2 24 5 18 2 -7 2 -21 0 -30z m0 -60 c-3 -10 -5 -4 -5 12 0
17 2 24 5 18 2 -7 2 -21 0 -30z m923 25 c0 -4 -4 -8 -9 -8 -6 0 -12 4 -15 8
-3 5 1 9 9 9 8 0 15 -4 15 -9z m37 6 c-3 -3 -12 -4 -19 -1 -8 3 -5 6 6 6 11 1
17 -2 13 -5z m-1692 -13 c-13 -13 -125 -30 -125 -19 0 4 17 8 38 9 20 0 46 4
57 9 28 12 41 12 30 1z m1405 -1 c0 -5 -8 -10 -17 -10 -15 0 -16 2 -3 10 19
12 20 12 20 0z m30 0 c0 -5 -5 -10 -11 -10 -5 0 -7 5 -4 10 3 6 8 10 11 10 2
0 4 -4 4 -10z m60 1 c0 -4 -11 -7 -24 -7 -14 0 -23 3 -21 6 5 9 45 10 45 1z
m100 5 c0 -8 -61 -12 -66 -4 -3 4 11 8 30 8 20 0 36 -2 36 -4z m574 -191 c3
-22 -5 1 -19 50 -34 123 -41 168 -11 70 14 -44 27 -98 30 -120z m-3294 99
c-16 -38 -30 -64 -30 -57 0 15 52 135 56 130 2 -2 -10 -35 -26 -73z m900 68
c0 -4 -17 -6 -37 -4 -59 5 -63 10 -10 11 26 1 47 -3 47 -7z m64 -4 c-3 -4 -14
-6 -24 -5 -31 5 -32 13 -1 12 16 0 27 -3 25 -7z m-1354 -55 c-27 -73 -31 -81
-24 -49 6 34 31 96 38 96 2 0 -4 -21 -14 -47z m-304 -64 c-14 -52 -25 -85 -25
-74 0 11 8 52 19 90 11 39 20 74 20 79 0 5 2 7 5 4 3 -2 -6 -47 -19 -99z
m2551 64 c-3 -10 -5 -4 -5 12 0 17 2 24 5 18 2 -7 2 -21 0 -30z m0 -60 c-3
-10 -5 -4 -5 12 0 17 2 24 5 18 2 -7 2 -21 0 -30z m-2293 -107 c-3 -21 -8 -35
-11 -32 -2 2 -1 20 3 40 3 21 8 35 11 32 2 -2 1 -20 -3 -40z m393 -3 c-3 -10
-5 -4 -5 12 0 17 2 24 5 18 2 -7 2 -21 0 -30z m1913 33 c0 -3 -4 -8 -10 -11
-5 -3 -10 -1 -10 4 0 6 5 11 10 11 6 0 10 -2 10 -4z m376 -71 c1 -13 -1 -27
-4 -29 -4 -2 -8 11 -8 30 0 38 8 37 12 -1z m-2299 -17 c-3 -7 -5 -2 -5 12 0
14 2 19 5 13 2 -7 2 -19 0 -25z m1923 28 c0 -3 -4 -8 -10 -11 -5 -3 -10 -1
-10 4 0 6 5 11 10 11 6 0 10 -2 10 -4z m-2326 -90 c-4 -31 -10 -56 -14 -56 -3
0 -2 27 3 60 12 75 20 73 11 -4z m403 29 c0 -8 -4 -15 -9 -15 -10 0 -11 14 -1
23 9 10 10 9 10 -8z m1923 1 c0 -3 -4 -8 -10 -11 -5 -3 -10 -1 -10 4 0 6 5 11
10 11 6 0 10 -2 10 -4z m374 -12 c3 -8 2 -12 -4 -9 -6 3 -10 10 -10 16 0 14 7
11 14 -7z m-2299 -24 c-3 -5 7 -12 22 -16 44 -9 50 -12 25 -13 -30 -1 -64 17
-57 30 4 5 8 9 11 9 3 0 2 -4 -1 -10z m2297 -45 c0 -20 -2 -39 -5 -41 -3 -3
-5 15 -5 41 0 26 2 44 5 42 3 -3 5 -22 5 -42z m1075 3 c-3 -7 -5 -2 -5 12 0
14 2 19 5 13 2 -7 2 -19 0 -25z m-3200 16 c-3 -3 -12 -4 -19 -1 -8 3 -5 6 6 6
11 1 17 -2 13 -5z m46 -1 c-7 -2 -19 -2 -25 0 -7 3 -2 5 12 5 14 0 19 -2 13
-5z m74 1 c-3 -3 -12 -4 -19 -1 -8 3 -5 6 6 6 11 1 17 -2 13 -5z m46 -1 c-7
-2 -19 -2 -25 0 -7 3 -2 5 12 5 14 0 19 -2 13 -5z m74 1 c-3 -3 -12 -4 -19 -1
-8 3 -5 6 6 6 11 1 17 -2 13 -5z m127 -6 c-3 -4 -11 -5 -19 -1 -21 7 -19 12 4
10 11 0 18 -5 15 -9z m1386 8 c0 -3 -4 -8 -10 -11 -5 -3 -10 -1 -10 4 0 6 5
11 10 11 6 0 10 -2 10 -4z m-2603 -43 c-3 -10 -5 -4 -5 12 0 17 2 24 5 18 2
-7 2 -21 0 -30z m1487 11 c3 -8 2 -12 -4 -9 -6 3 -10 10 -10 16 0 14 7 11 14
-7z m-1225 -84 c-1 -44 -5 -83 -10 -85 -4 -3 -6 3 -4 12 2 10 4 48 4 86 1 37
3 67 7 67 3 0 4 -36 3 -80z m3797 55 c1 -8 -1 -17 -5 -19 -4 -3 -7 6 -7 19 0
25 8 25 12 0z m-2569 -22 c1 -24 0 -25 -6 -8 -7 17 -6 35 2 35 2 0 3 -12 4
-27z m1113 23 c0 -3 -4 -8 -10 -11 -5 -3 -10 -1 -10 4 0 6 5 11 10 11 6 0 10
-2 10 -4z m-2605 -87 c0 -38 -3 -69 -7 -69 -4 0 -7 33 -5 74 3 92 12 89 12 -5z
m2980 21 c0 -65 -11 -65 -14 0 -1 28 2 50 6 50 5 0 8 -23 8 -50z m-388 8 c-3
-7 -5 -2 -5 12 0 14 2 19 5 13 2 -7 2 -19 0 -25z m1470 -111 c-2 -23 -3 -1 -3
48 0 50 1 68 3 42 2 -26 2 -67 0 -90z m-2570 66 c-3 -10 -5 -2 -5 17 0 19 2
27 5 18 2 -10 2 -26 0 -35z m1113 23 c0 -3 -4 -8 -10 -11 -5 -3 -10 -1 -10 4
0 6 5 11 10 11 6 0 10 -2 10 -4z m-1112 -72 c0 -17 -3 -22 -8 -13 -5 6 -6 18
-3 26 8 19 11 16 11 -13z m1484 -592 c2 -248 0 -452 -4 -452 -4 0 -6 242 -5
538 0 295 2 499 4 452 1 -47 4 -289 5 -538z m-377 598 c3 -5 1 -10 -4 -10 -6
0 -11 5 -11 10 0 6 2 10 4 10 3 0 8 -4 11 -10z m-2337 -77 c0 -38 -1 -63 -3
-58 -7 19 -11 125 -5 125 4 0 7 -30 8 -67z m-262 42 c-1 -8 -5 -17 -8 -21 -5
-4 -4 16 1 34 3 9 9 -1 7 -13z m1490 -20 c-1 -8 -5 -17 -8 -21 -5 -4 -4 16 1
34 3 9 9 -1 7 -13z m1109 -5 c3 -5 1 -10 -4 -10 -6 0 -11 5 -11 10 0 6 2 10 4
10 3 0 8 -4 11 -10z m-2598 -30 c-1 -21 -10 -18 -13 5 -1 8 2 15 6 15 5 0 8
-9 7 -20z m4060 0 c-5 -29 -13 -33 -13 -5 0 14 4 25 8 25 4 0 7 -9 5 -20z
m-1463 -20 c-1 -38 -9 -47 -12 -14 -2 22 4 44 11 44 1 0 2 -14 1 -30z m-1114
-17 c0 -33 -16 -44 -69 -47 -28 -2 -49 -1 -46 2 3 3 23 7 44 8 48 2 61 10 61
35 0 10 2 19 5 19 3 0 5 -8 5 -17z m-1483 -25 c-3 -7 -5 -2 -5 12 0 14 2 19 5
13 2 -7 2 -19 0 -25z m267 -14 c3 -8 2 -12 -4 -9 -6 3 -10 10 -10 16 0 14 7
11 14 -7z m3783 -6 c-3 -8 -6 -5 -6 6 -1 11 2 17 5 13 3 -3 4 -12 1 -19z
m-3317 3 c0 -5 -14 -11 -30 -13 -33 -5 -29 7 5 15 11 3 21 5 23 6 1 0 2 -3 2
-8z m45 -1 c-3 -5 -14 -10 -23 -9 -14 0 -13 2 3 9 27 11 27 11 20 0z m35 0 c0
-5 -5 -10 -11 -10 -5 0 -7 5 -4 10 3 6 8 10 11 10 2 0 4 -4 4 -10z m540 0 c0
-5 -5 -10 -11 -10 -5 0 -7 5 -4 10 3 6 8 10 11 10 2 0 4 -4 4 -10z m1245 -84
c0 -52 -2 -93 -5 -91 -5 3 -5 173 -1 183 5 10 6 -10 6 -92z m-2590 74 c3 -5 1
-10 -4 -10 -6 0 -11 5 -11 10 0 6 2 10 4 10 3 0 8 -4 11 -10z m1055 3 c0 -5
-37 -7 -82 -5 -150 5 -165 8 -40 10 67 1 122 -1 122 -5z m178 0 c-32 -2 -84
-2 -115 0 -32 2 -6 3 57 3 63 0 89 -1 58 -3z m-577 -63 c1 -30 9 -79 16 -109
8 -29 12 -55 10 -57 -8 -9 -33 111 -36 171 -1 33 0 58 2 55 3 -3 6 -30 8 -60z
m-391 21 c0 -16 5 -42 11 -58 7 -19 7 -25 0 -18 -14 14 -31 105 -20 105 5 0 9
-13 9 -29z m-263 -16 c0 -8 -4 -12 -9 -9 -5 3 -6 10 -3 15 9 13 12 11 12 -6z
m10 -117 c-3 -8 -6 -5 -6 6 -1 11 2 17 5 13 3 -3 4 -12 1 -19z m4012 -15 c-26
-102 -32 -123 -36 -120 -3 3 20 108 32 145 10 28 13 9 4 -25z m-3710 -68 c-1
-18 -27 59 -28 80 0 11 7 0 15 -25 7 -25 13 -49 13 -55z m2279 34 c1 -18 1
-31 -2 -28 -7 7 -15 69 -7 65 4 -3 8 -19 9 -37z m-2565 -6 c9 -51 2 -53 -11
-3 -5 22 -6 40 -2 40 4 0 10 -17 13 -37z m2565 -104 l-3 -54 -5 62 c-3 34 -1
58 3 54 5 -4 7 -32 5 -62z m-2249 -9 c0 -8 -7 1 -14 20 -18 46 -17 64 0 25 8
-16 14 -37 14 -45z m380 0 c13 -30 36 -79 53 -109 16 -29 27 -55 25 -58 -5 -4
-97 180 -111 222 -14 40 11 -1 33 -55z m-664 -8 c9 -29 15 -55 13 -57 -2 -3
-14 25 -26 62 -12 36 -17 62 -13 57 5 -5 16 -33 26 -62z m3914 -26 c-6 -25
-15 -46 -18 -46 -4 0 -1 22 8 50 19 61 26 59 10 -4z m-2279 -12 c0 -2 -30 -3
-67 -2 l-68 1 55 6 c52 6 80 4 80 -5z m-1332 -25 c-3 -8 -7 -3 -11 10 -4 17
-3 21 5 13 5 -5 8 -16 6 -23z m1385 24 c-7 -2 -21 -2 -30 0 -10 3 -4 5 12 5
17 0 24 -2 18 -5z m92 -13 c3 -4 -11 -4 -30 0 -19 4 -37 5 -41 1 -4 -3 -4 -1
-1 5 7 11 64 7 72 -6z m-310 1 c-19 -4 -31 -13 -33 -26 -2 -11 -8 -24 -12 -29
-12 -12 0 36 13 52 5 6 21 11 36 11 25 -1 25 -2 -4 -8z m1062 -48 c-3 -10 -5
-4 -5 12 0 17 2 24 5 18 2 -7 2 -21 0 -30z m-2483 -53 c5 -20 3 -19 -8 5 -7
17 -16 41 -20 55 -5 20 -3 19 8 -5 7 -16 16 -41 20 -55z m296 14 c13 -30 30
-60 37 -66 7 -6 13 -15 13 -21 0 -5 -8 1 -18 14 -26 34 -74 129 -65 129 5 0
19 -25 33 -56z m3533 9 c-9 -27 -18 -50 -21 -53 -6 -6 5 41 18 75 17 44 19 27
3 -22z m-1346 -85 c-2 -18 -4 -4 -4 32 0 36 2 50 4 33 2 -18 2 -48 0 -65z
m-1110 5 c-2 -16 -4 -5 -4 22 0 28 2 40 4 28 2 -13 2 -35 0 -50z m-633 -3 c20
-22 33 -40 29 -40 -8 0 -78 80 -70 80 2 0 20 -18 41 -40z m-625 -208 c0 -12
-98 182 -98 197 -1 8 22 -32 49 -88 28 -56 50 -105 49 -109z m3666 161 c-9
-15 -13 -19 -10 -8 4 11 10 29 13 40 3 11 7 14 9 8 3 -7 -3 -24 -12 -40z
m-2408 -35 c-2 -13 -4 -5 -4 17 -1 22 1 32 4 23 2 -10 2 -28 0 -40z m-569 12
c7 -11 11 -20 9 -20 -2 0 -12 9 -22 20 -10 11 -14 20 -9 20 5 0 15 -9 22 -20z
m-418 -34 c0 -6 -7 -1 -15 10 -8 10 -15 23 -15 28 0 6 7 1 15 -10 8 -10 15
-23 15 -28z m2105 24 c3 -5 1 -10 -4 -10 -6 0 -11 5 -11 10 0 6 2 10 4 10 3 0
8 -4 11 -10z m1246 -62 c-17 -29 -31 -49 -31 -44 0 11 54 106 58 101 2 -2 -10
-27 -27 -57z m-2860 -3 c26 -25 44 -45 40 -45 -5 0 -29 20 -53 45 -25 25 -43
45 -40 45 3 0 27 -20 53 -45z m-424 -62 c-5 -4 -57 81 -57 93 0 4 14 -14 31
-40 16 -27 28 -50 26 -53z m1290 72 c0 -8 -4 -12 -9 -9 -5 3 -6 10 -3 15 9 13
12 11 12 -6z m-370 -32 c-3 -10 -5 -4 -5 12 0 17 2 24 5 18 2 -7 2 -21 0 -30z
m370 -25 c-3 -7 -5 -2 -5 12 0 14 2 19 5 13 2 -7 2 -19 0 -25z m748 22 c3 -5
1 -10 -4 -10 -6 0 -11 5 -11 10 0 6 2 10 4 10 3 0 8 -4 11 -10z m-1118 -42
c-3 -8 -6 -5 -6 6 -1 11 2 17 5 13 3 -3 4 -12 1 -19z m1116 2 c3 -11 2 -22 -2
-24 -4 -3 -8 6 -9 20 -2 29 4 31 11 4z m-1451 -78 c26 -23 44 -42 40 -42 -4 1
-34 26 -68 58 -65 62 -48 52 28 -16z m-887 21 c15 -27 37 -58 49 -71 13 -15
15 -21 6 -17 -9 3 -20 13 -26 23 -37 60 -65 112 -61 112 3 0 17 -21 32 -47z
m1222 15 c-3 -8 -6 -5 -6 6 -1 11 2 17 5 13 3 -3 4 -12 1 -19z m2298 -17 c-21
-43 -29 -39 -8 4 9 19 18 33 21 31 2 -2 -4 -18 -13 -35z m-3155 -21 c17 -22
28 -40 23 -40 -8 0 -68 80 -59 80 2 0 19 -18 36 -40z m1227 25 c0 -8 -4 -12
-9 -9 -5 3 -6 10 -3 15 9 13 12 11 12 -6z m748 -54 c0 -38 -2 -72 -5 -74 -3
-3 -6 28 -6 69 -1 41 1 74 5 74 3 0 6 -31 6 -69z m-1115 4 c0 -25 -3 -45 -8
-45 -4 0 -6 20 -4 45 2 25 6 45 8 45 2 0 4 -20 4 -45z m2260 -15 c-6 -11 -16
-20 -22 -20 -6 0 -3 9 7 20 10 11 20 20 22 20 2 0 -1 -9 -7 -20z m-773 -12 c2
-17 0 -19 -7 -8 -5 8 -6 18 -4 22 8 12 10 10 11 -14z m-1681 -45 c34 -24 66
-43 72 -43 6 0 14 -4 17 -10 14 -23 -49 12 -125 69 -85 63 -61 53 36 -16z
m-508 -88 c45 -46 82 -88 82 -92 0 -11 -162 159 -188 197 l-23 35 23 -28 c13
-15 60 -65 106 -112z m1069 93 c-3 -7 -5 -2 -5 12 0 14 2 19 5 13 2 -7 2 -19
0 -25z m1847 -8 c-10 -16 -20 -28 -22 -26 -4 5 28 56 35 56 2 0 -4 -13 -13
-30z m-3359 10 c3 -5 1 -10 -4 -10 -6 0 -11 5 -11 10 0 6 2 10 4 10 3 0 8 -4
11 -10z m2635 6 c0 -3 -4 -8 -10 -11 -5 -3 -10 -1 -10 4 0 6 5 11 10 11 6 0
10 -2 10 -4z m-1490 -26 c0 -5 -2 -10 -4 -10 -3 0 -8 5 -11 10 -3 6 -1 10 4
10 6 0 11 -4 11 -10z m1487 -107 c-2 -21 -4 -4 -4 37 0 41 2 58 4 38 2 -21 2
-55 0 -75z m-367 87 c0 -5 -5 -10 -11 -10 -5 0 -7 5 -4 10 3 6 8 10 11 10 2 0
4 -4 4 -10z m-1127 -30 c-6 -22 -29 -26 -53 -10 -11 8 -8 9 13 4 26 -6 33 1
28 29 -1 5 3 6 8 3 5 -3 7 -15 4 -26z m-1021 -94 c13 -26 6 -18 -56 59 l-48
60 46 -49 c26 -27 52 -58 58 -70z m1395 82 c-3 -7 -5 -2 -5 12 0 14 2 19 5 13
2 -7 2 -19 0 -25z m1797 -2 c-16 -18 -45 -54 -64 -79 -19 -26 -39 -46 -44 -47
-5 0 0 10 11 23 11 12 29 33 39 46 38 48 76 91 81 91 3 0 -8 -15 -23 -34z
m-1047 -15 c0 -11 -5 -18 -9 -15 -4 3 -5 11 -1 19 7 21 12 19 10 -4z m-750
-23 c-3 -8 -6 -5 -6 6 -1 11 2 17 5 13 3 -3 4 -12 1 -19z m753 -24 c0 -8 -5
-12 -10 -9 -6 4 -8 11 -5 16 9 14 15 11 15 -7z m-753 -61 c-3 -10 -5 -4 -5 12
0 17 2 24 5 18 2 -7 2 -21 0 -30z m751 -60 l-2 -98 -5 85 c-6 80 -4 110 5 110
2 0 3 -44 2 -97z m378 72 c0 -28 -8 -24 -13 5 -2 11 1 20 5 20 4 0 8 -11 8
-25z m-2409 -93 c54 -54 132 -125 173 -158 99 -79 109 -88 90 -78 -54 28 -390
334 -367 334 3 0 50 -44 104 -98z m339 83 c9 -8 11 -15 6 -15 -5 0 -15 7 -22
15 -7 8 -9 15 -6 15 4 0 14 -7 22 -15z m2574 -72 c-30 -31 -66 -66 -78 -76
-13 -11 -34 -30 -45 -41 -12 -12 -21 -19 -20 -16 5 12 179 187 188 189 5 0
-15 -25 -45 -56z m-2470 -19 c0 -3 -20 9 -45 26 -25 17 -45 33 -45 36 0 3 20
-9 45 -26 25 -17 45 -33 45 -36z m832 34 c-8 -8 -9 -4 -5 13 4 13 8 18 11 10
2 -7 -1 -18 -6 -23z m1135 -20 c-2 -13 -4 -5 -4 17 -1 22 1 32 4 23 2 -10 2
-28 0 -40z m-1900 -48 c6 0 13 -3 15 -8 2 -4 27 -22 56 -41 28 -18 52 -35 52
-38 0 -5 -4 -3 -90 52 -36 23 -72 50 -80 61 -10 14 -7 13 11 -3 14 -13 30 -23
36 -23z m770 15 c0 -8 -4 -12 -9 -9 -5 3 -6 10 -3 15 9 13 12 11 12 -6z m1112
2 c-30 -24 -127 -87 -133 -87 -5 0 16 16 45 36 30 20 60 43 68 50 8 7 17 11
20 9 2 -3 2 -6 0 -8z m-362 -94 c-3 -10 -5 -4 -5 12 0 17 2 24 5 18 2 -7 2
-21 0 -30z m113 -42 c-83 -41 -118 -56 -107 -45 10 11 160 82 172 83 6 0 -24
-17 -65 -38z m-1450 19 c8 -5 12 -11 10 -14 -3 -2 -14 2 -24 10 -22 15 -10 19
14 4z m2055 1 c-27 -25 -125 -101 -125 -96 0 6 120 105 128 105 3 0 2 -4 -3
-9z m-710 -11 c3 -5 1 -10 -4 -10 -6 0 -11 5 -11 10 0 6 2 10 4 10 3 0 8 -4
11 -10z m-1271 -30 c25 -10 46 -22 46 -24 0 -5 -91 31 -99 40 -9 8 8 4 53 -16z
m91 -40 c3 -5 2 -10 -4 -10 -5 0 -13 5 -16 10 -3 6 -2 10 4 10 5 0 13 -4 16
-10z m1755 -14 c0 -18 -316 -203 -327 -192 -2 2 45 29 104 59 59 31 133 74
163 96 57 42 60 44 60 37z m-2266 -45 c28 -21 66 -46 84 -55 17 -9 32 -19 32
-22 0 -8 -62 26 -115 64 -62 44 -71 52 -60 52 4 0 31 -17 59 -39z m645 23 c13
-11 -8 -10 -34 2 l-30 13 30 -6 c17 -3 32 -7 34 -9z m56 -14 c13 -5 14 -9 5
-9 -8 0 -24 4 -35 9 -13 5 -14 9 -5 9 8 0 24 -4 35 -9z m55 -16 c0 -2 -7 -4
-15 -4 -8 0 -15 4 -15 10 0 5 7 7 15 4 8 -4 15 -8 15 -10z m70 -10 c0 -8 -5
-12 -10 -9 -6 4 -8 11 -5 16 9 14 15 11 15 -7z m78 -11 c-10 -2 -26 -2 -35 0
-10 3 -2 5 17 5 19 0 27 -2 18 -5z m-748 -63 c8 -5 11 -10 5 -10 -5 0 -17 5
-25 10 -8 5 -10 10 -5 10 6 0 17 -5 25 -10z m40 -20 c0 -5 -4 -10 -10 -10 -5
0 -10 5 -10 10 0 6 5 10 10 10 6 0 10 -4 10 -10z m44 -25 c11 -8 16 -15 10
-15 -5 0 -18 7 -28 15 -11 8 -16 15 -10 15 5 0 18 -7 28 -15z m96 -43 c3 -3
-8 -2 -25 2 -16 4 -34 12 -40 17 -5 5 6 4 25 -2 19 -7 37 -14 40 -17z m1570
13 c-14 -8 -32 -14 -40 -14 -8 0 -1 6 15 14 40 18 57 18 25 0z m-1400 -76 c0
-4 -26 4 -57 17 -32 13 -63 24 -70 24 -6 0 -15 4 -18 10 -3 5 28 -2 70 -17 41
-15 75 -30 75 -34z m1290 36 c0 -6 -73 -25 -78 -20 -2 2 11 8 29 14 41 11 49
12 49 6z m-101 -35 c-8 -5 -27 -11 -41 -14 -15 -2 -36 -9 -47 -16 -12 -6 -21
-7 -21 -1 0 8 29 19 74 28 11 2 22 6 25 8 2 3 9 5 15 5 6 0 4 -5 -5 -10z
m-1119 -16 c0 -2 -7 -4 -15 -4 -8 0 -15 4 -15 10 0 5 7 7 15 4 8 -4 15 -8 15
-10z m74 -18 c16 -3 31 -8 34 -11 9 -9 -71 6 -88 16 -12 8 -11 9 5 5 11 -3 33
-7 49 -10z m926 0 c0 -6 -102 -27 -107 -22 -3 2 15 9 39 14 51 12 68 14 68 8z
m-847 -23 c-7 -2 -19 -2 -25 0 -7 3 -2 5 12 5 14 0 19 -2 13 -5z m722 -3 c-3
-5 -12 -10 -18 -10 -7 0 -6 4 3 10 19 12 23 12 15 0z m-160 -10 c4 -6 -6 -10
-22 -9 -25 0 -26 1 -8 9 11 5 21 9 22 9 1 1 5 -3 8 -9z m-347 -7 c-10 -2 -28
-2 -40 0 -13 2 -5 4 17 4 22 1 32 -1 23 -4z m286 -5 c-6 -9 -252 -9 -258 0 -2
4 56 7 129 7 73 0 131 -3 129 -7z"/>
</g>
</svg>
